<svg width="1500" height="500" viewBox="0 0 1500 500" fill="none" xmlns="http://www.w3.org/2000/svg">
<rect width="1500" height="500" fill="#E5E5E5"/>
<rect width="1500" height="500" fill="black"/>
<circle cx="321" cy="250" r="200" stroke="#ADFF85" stroke-width="20"/>
<path d="M203 140.324C268.139 110.416 303.658 127.36 339 191" stroke="#ADFF85" stroke-width="20" stroke-linecap="round"/>
<circle cx="266.5" cy="173.5" r="12.5" fill="#ADFF85"/>
<path d="M218 132C119.589 194.901 140.236 374.606 290.226 445.074" stroke="#ADFF85" stroke-width="20"/>
<path d="M191.39 280.289C191.39 292.842 194.045 302.946 200.532 313.757C203.206 318.214 208.208 324.311 209.316 329.299C209.963 332.209 211.808 335.515 213.172 338.243C219.035 349.968 226.676 359.964 237.18 368.134C243.746 373.24 250.719 377.715 257.174 382.96C262.855 387.576 268.227 393.311 274.385 397.27C279.587 400.614 283.548 405.873 289.569 408.36C297.375 411.584 304.892 415.434 312.266 419.489C317.683 422.469 322.155 427.113 326.456 431.414C332.237 437.195 338.444 433.402 345.575 433.402C348.304 433.402 351.08 433.553 353.803 433.402C356.461 433.254 359.143 431.255 361.674 431.255" stroke="#ADFF85" stroke-width="20" stroke-linecap="round"/>
<path d="M356.665 426.962C343.521 426.232 332.783 416.124 321.05 411.778C317.771 410.564 312.566 407.25 310 404.941C308.89 403.942 307.58 403.592 306.264 402.994C304.116 402.017 303.446 400.295 301.891 398.74C296.344 393.193 290.725 387.236 283.329 384.391C276.192 381.646 270.338 376.727 264.925 371.314C260.942 367.33 257.083 363.147 252.205 360.979C250.054 360.023 247.989 359.423 245.766 358.435C242.893 357.158 241.536 356.377 238.969 354.381C236.709 352.623 233.28 351.624 232.172 348.577C231.832 347.644 230.898 342.232 230.383 341.82C227.035 339.141 225.413 333.79 221.44 331.803" stroke="#ADFF85" stroke-width="20" stroke-linecap="round"/>
<path d="M339.808 195.323C338.556 219.585 233.384 236.975 273.207 373.983" stroke="#ADFF85" stroke-width="20" stroke-linecap="round"/>
<path d="M179.85 190.586C179.85 202.865 178.965 215.137 178.965 227.304C178.965 231.563 178.729 235.882 178.965 240.133C179.134 243.181 180.735 246.306 180.735 249.423C180.735 257.99 185.728 266.325 186.043 274.835C186.278 281.168 191.352 287.779 191.352 294.104" stroke="#ADFF85" stroke-width="20" stroke-linecap="round"/>
<path d="M168.348 213.59C168.348 235.196 165.819 260.08 175.229 279.947C178.55 286.958 180.622 294.515 183.831 301.575C187.236 309.065 192.152 316.356 195.088 323.989C196.403 327.409 199.517 332.487 202.411 334.803C205.311 337.123 207.141 342.78 209.539 345.862C213.81 351.353 219.63 355.7 224.088 361.149C228.936 367.074 235.473 371.354 240.702 376.583C243.872 379.753 248.743 383.805 252.794 386.119C256.41 388.186 263.111 392.312 267.442 392.312" stroke="#ADFF85" stroke-width="20" stroke-linecap="round"/>
<path d="M181.462 302.472C181.462 305.522 181.153 308.75 181.585 311.772C182.32 316.92 185.517 321.36 188.083 325.722C192.153 332.642 197.208 338.969 201.54 345.708C203.983 349.508 207.451 352.625 210.163 356.24C211.076 357.457 212.155 359.176 213.334 360.12C215.605 361.937 217.204 365.129 219.278 367.203C223.974 371.899 228.732 376.357 233.566 380.937C236.351 383.575 240.476 384.894 243.544 387.281C246.086 389.258 248.878 390.636 251.304 392.793C252.235 393.62 255.028 396.017 256.293 396.15C260.398 396.582 265.191 399.984 268.765 401.97C270.514 402.941 273.601 403.868 275.016 405.142C275.787 405.836 280.71 409.407 279.297 408.621C277.059 407.379 274.387 406.749 272.245 405.142C266.41 400.766 258.424 399.001 251.858 395.719C245.281 392.43 238.651 389.192 232.458 385.064" stroke="#ADFF85" stroke-width="20" stroke-linecap="round"/>
<path d="M277.736 370.063C278.04 371.28 282.779 372.491 283.895 373.142C288.235 375.674 292.877 376.981 297.464 378.916C303.76 381.572 310.199 383.873 316.518 386.519C322.876 389.18 329.594 392.065 335.765 394.988C339.849 396.922 344.733 397.306 348.757 399.318C352.858 401.369 357.737 404.538 362.182 405.525C367.964 406.81 373.522 410.355 379.504 411.684C385.147 412.938 367.962 412.502 362.182 412.502C349.858 412.502 337.579 405.851 327.97 398.645" stroke="#ADFF85" stroke-width="20" stroke-linecap="round"/>
<line x1="309.634" y1="62.1972" x2="311.427" y2="39.2454" stroke="black" stroke-width="20"/>
<path d="M432.521 417.145C599 299 509.479 49.5 318.5 49.5" stroke="black" stroke-width="25"/>
<path d="M223 122C97 311.5 301.109 392.137 457 420" stroke="#ADFF85" stroke-width="15"/>
<circle cx="321" cy="250" r="220" stroke="black" stroke-width="20"/>
<path d="M501 250.5C501 350.212 420.387 431 321 431C221.614 431 141 350.212 141 250.5C141 150.788 221.614 70 321 70C420.387 70 501 150.788 501 250.5Z" stroke="black" stroke-width="20"/>
<path d="M186.5 164C210.859 122.348 258.943 82.0317 292.443 61.0317" stroke="#ADFF85" stroke-width="20"/>
<line x1="290.944" y1="48.0606" x2="282.944" y2="123.061" stroke="#ADFF85" stroke-width="20"/>
<path d="M141 264C138.5 155 211.5 95 297.5 32.5" stroke="black" stroke-width="19"/>
<mask id="path-20-outside-1_669_24" maskUnits="userSpaceOnUse" x="535" y="139" width="844" height="221" fill="black">
<rect fill="white" x="535" y="139" width="844" height="221"/>
<path d="M536.71 359V140.818H569.629V330.662H668.493V359H536.71ZM703.101 140.818H740.494L797.49 240.001H799.834L856.829 140.818H894.223L815.068 273.347V359H782.256V273.347L703.101 140.818ZM1131.41 140.818V359H1101.15L990.247 198.986H988.223V359H955.304V140.818H985.773L1096.78 301.045H1098.81V140.818H1131.41ZM1232.33 140.818L1284.53 226.152H1286.24L1338.44 140.818H1376.58L1308.61 249.909L1377 359H1338.65L1286.24 274.838H1284.53L1232.12 359H1193.76L1263.33 249.909L1194.19 140.818H1232.33Z"/>
</mask>
<path d="M536.71 359V140.818H569.629V330.662H668.493V359H536.71ZM703.101 140.818H740.494L797.49 240.001H799.834L856.829 140.818H894.223L815.068 273.347V359H782.256V273.347L703.101 140.818ZM1131.41 140.818V359H1101.15L990.247 198.986H988.223V359H955.304V140.818H985.773L1096.78 301.045H1098.81V140.818H1131.41ZM1232.33 140.818L1284.53 226.152H1286.24L1338.44 140.818H1376.58L1308.61 249.909L1377 359H1338.65L1286.24 274.838H1284.53L1232.12 359H1193.76L1263.33 249.909L1194.19 140.818H1232.33Z" fill="white"/>
<path d="M536.71 359H535.71V360H536.71V359ZM536.71 140.818V139.818H535.71V140.818H536.71ZM569.629 140.818H570.629V139.818H569.629V140.818ZM569.629 330.662H568.629V331.662H569.629V330.662ZM668.493 330.662H669.493V329.662H668.493V330.662ZM668.493 359V360H669.493V359H668.493ZM537.71 359V140.818H535.71V359H537.71ZM536.71 141.818H569.629V139.818H536.71V141.818ZM568.629 140.818V330.662H570.629V140.818H568.629ZM569.629 331.662H668.493V329.662H569.629V331.662ZM667.493 330.662V359H669.493V330.662H667.493ZM668.493 358H536.71V360H668.493V358ZM703.101 140.818V139.818H701.339L702.242 141.331L703.101 140.818ZM740.494 140.818L741.361 140.32L741.073 139.818H740.494V140.818ZM797.49 240.001L796.623 240.5L796.911 241.001H797.49V240.001ZM799.834 240.001V241.001H800.412L800.701 240.5L799.834 240.001ZM856.829 140.818V139.818H856.251L855.962 140.32L856.829 140.818ZM894.223 140.818L895.081 141.331L895.985 139.818H894.223V140.818ZM815.068 273.347L814.209 272.834L814.068 273.071V273.347H815.068ZM815.068 359V360H816.068V359H815.068ZM782.256 359H781.256V360H782.256V359ZM782.256 273.347H783.256V273.071L783.114 272.834L782.256 273.347ZM703.101 141.818H740.494V139.818H703.101V141.818ZM739.627 141.316L796.623 240.5L798.357 239.503L741.361 140.32L739.627 141.316ZM797.49 241.001H799.834V239.001H797.49V241.001ZM800.701 240.5L857.696 141.316L855.962 140.32L798.967 239.503L800.701 240.5ZM856.829 141.818H894.223V139.818H856.829V141.818ZM893.364 140.305L814.209 272.834L815.927 273.859L895.081 141.331L893.364 140.305ZM814.068 273.347V359H816.068V273.347H814.068ZM815.068 358H782.256V360H815.068V358ZM783.256 359V273.347H781.256V359H783.256ZM783.114 272.834L703.959 140.305L702.242 141.331L781.397 273.859L783.114 272.834ZM1131.41 140.818H1132.41V139.818H1131.41V140.818ZM1131.41 359V360H1132.41V359H1131.41ZM1101.15 359L1100.33 359.57L1100.63 360H1101.15V359ZM990.247 198.986L991.069 198.416L990.771 197.986H990.247V198.986ZM988.223 198.986V197.986H987.223V198.986H988.223ZM988.223 359V360H989.223V359H988.223ZM955.304 359H954.304V360H955.304V359ZM955.304 140.818V139.818H954.304V140.818H955.304ZM985.773 140.818L986.595 140.249L986.297 139.818H985.773V140.818ZM1096.78 301.045L1095.96 301.615L1096.26 302.045H1096.78V301.045ZM1098.81 301.045V302.045H1099.81V301.045H1098.81ZM1098.81 140.818V139.818H1097.81V140.818H1098.81ZM1130.41 140.818V359H1132.41V140.818H1130.41ZM1131.41 358H1101.15V360H1131.41V358ZM1101.97 358.43L991.069 198.416L989.425 199.555L1100.33 359.57L1101.97 358.43ZM990.247 197.986H988.223V199.986H990.247V197.986ZM987.223 198.986V359H989.223V198.986H987.223ZM988.223 358H955.304V360H988.223V358ZM956.304 359V140.818H954.304V359H956.304ZM955.304 141.818H985.773V139.818H955.304V141.818ZM984.951 141.388L1095.96 301.615L1097.6 300.476L986.595 140.249L984.951 141.388ZM1096.78 302.045H1098.81V300.045H1096.78V302.045ZM1099.81 301.045V140.818H1097.81V301.045H1099.81ZM1098.81 141.818H1131.41V139.818H1098.81V141.818ZM1232.33 140.818L1233.18 140.296L1232.89 139.818H1232.33V140.818ZM1284.53 226.152L1283.68 226.674L1283.97 227.152H1284.53V226.152ZM1286.24 226.152V227.152H1286.8L1287.09 226.674L1286.24 226.152ZM1338.44 140.818V139.818H1337.88L1337.58 140.296L1338.44 140.818ZM1376.58 140.818L1377.43 141.347L1378.38 139.818H1376.58V140.818ZM1308.61 249.909L1307.76 249.38L1307.43 249.911L1307.76 250.44L1308.61 249.909ZM1377 359V360H1378.81L1377.85 358.469L1377 359ZM1338.65 359L1337.8 359.529L1338.1 360H1338.65V359ZM1286.24 274.838L1287.09 274.309L1286.79 273.838H1286.24V274.838ZM1284.53 274.838V273.838H1283.98L1283.68 274.309L1284.53 274.838ZM1232.12 359V360H1232.67L1232.97 359.529L1232.12 359ZM1193.76 359L1192.92 358.462L1191.94 360H1193.76V359ZM1263.33 249.909L1264.17 250.447L1264.52 249.911L1264.18 249.374L1263.33 249.909ZM1194.19 140.818V139.818H1192.37L1193.35 141.354L1194.19 140.818ZM1231.48 141.34L1283.68 226.674L1285.38 225.63L1233.18 140.296L1231.48 141.34ZM1284.53 227.152H1286.24V225.152H1284.53V227.152ZM1287.09 226.674L1339.29 141.34L1337.58 140.296L1285.38 225.63L1287.09 226.674ZM1338.44 141.818H1376.58V139.818H1338.44V141.818ZM1375.73 140.289L1307.76 249.38L1309.46 250.438L1377.43 141.347L1375.73 140.289ZM1307.76 250.44L1376.16 359.531L1377.85 358.469L1309.46 249.378L1307.76 250.44ZM1377 358H1338.65V360H1377V358ZM1339.5 358.471L1287.09 274.309L1285.39 275.367L1337.8 359.529L1339.5 358.471ZM1286.24 273.838H1284.53V275.838H1286.24V273.838ZM1283.68 274.309L1231.27 358.471L1232.97 359.529L1285.38 275.367L1283.68 274.309ZM1232.12 358H1193.76V360H1232.12V358ZM1194.61 359.538L1264.17 250.447L1262.49 249.371L1192.92 358.462L1194.61 359.538ZM1264.18 249.374L1195.04 140.283L1193.35 141.354L1262.49 250.444L1264.18 249.374ZM1194.19 141.818H1232.33V139.818H1194.19V141.818Z" fill="white" mask="url(#path-20-outside-1_669_24)"/>
</svg>
