<svg width="1500" height="500" viewBox="0 0 1500 500" fill="none" xmlns="http://www.w3.org/2000/svg">
<rect width="1500" height="500" fill="#E5E5E5"/>
<rect width="1500" height="500" fill="white"/>
<circle cx="343" cy="246.768" r="200" stroke="#38761D" stroke-width="20"/>
<path d="M225 137.092C290.139 107.184 325.658 124.129 361 187.768" stroke="#38761D" stroke-width="20" stroke-linecap="round"/>
<circle cx="288.5" cy="170.268" r="12.5" fill="#38761D"/>
<path d="M240 128.768C141.589 191.669 162.236 371.374 312.226 441.843" stroke="#38761D" stroke-width="20"/>
<path d="M213.39 277.057C213.39 289.61 216.045 299.715 222.532 310.526C225.206 314.983 230.208 321.079 231.316 326.068C231.963 328.978 233.808 332.284 235.172 335.011C241.035 346.737 248.676 356.732 259.18 364.902C265.746 370.009 272.719 374.484 279.174 379.729C284.855 384.344 290.227 390.079 296.385 394.038C301.587 397.382 305.548 402.641 311.569 405.128C319.375 408.352 326.892 412.202 334.266 416.258C339.683 419.237 344.155 423.881 348.456 428.182C354.237 433.963 360.444 430.17 367.575 430.17C370.304 430.17 373.08 430.321 375.803 430.17C378.461 430.022 381.143 428.023 383.674 428.023" stroke="#38761D" stroke-width="20" stroke-linecap="round"/>
<path d="M378.665 423.731C365.521 423 354.783 412.892 343.05 408.546C339.771 407.332 334.566 404.019 332 401.71C330.89 400.711 329.58 400.36 328.264 399.762C326.116 398.786 325.446 397.063 323.891 395.509C318.344 389.961 312.725 384.004 305.329 381.16C298.192 378.415 292.338 373.495 286.925 368.082C282.942 364.099 279.083 359.915 274.205 357.747C272.054 356.791 269.989 356.192 267.766 355.204C264.893 353.927 263.536 353.145 260.969 351.149C258.709 349.391 255.28 348.393 254.172 345.346C253.832 344.412 252.898 339.001 252.383 338.588C249.035 335.91 247.413 330.558 243.44 328.572" stroke="#38761D" stroke-width="20" stroke-linecap="round"/>
<path d="M361.808 192.091C360.556 216.354 255.384 233.743 295.207 370.751" stroke="#38761D" stroke-width="20" stroke-linecap="round"/>
<path d="M201.85 187.355C201.85 199.634 200.965 211.905 200.965 224.072C200.965 228.331 200.729 232.65 200.965 236.901C201.134 239.949 202.735 243.074 202.735 246.191C202.735 254.758 207.728 263.094 208.043 271.604C208.278 277.937 213.352 284.547 213.352 290.872" stroke="#38761D" stroke-width="20" stroke-linecap="round"/>
<path d="M190.348 210.358C190.348 231.964 187.819 256.848 197.229 276.716C200.55 283.726 202.622 291.283 205.831 298.343C209.236 305.833 214.152 313.125 217.088 320.757C218.403 324.177 221.517 329.255 224.411 331.571C227.311 333.891 229.141 339.548 231.539 342.631C235.81 348.122 241.63 352.469 246.088 357.917C250.936 363.842 257.473 368.122 262.702 373.352C265.872 376.521 270.743 380.573 274.794 382.887C278.41 384.954 285.111 389.081 289.442 389.081" stroke="#38761D" stroke-width="20" stroke-linecap="round"/>
<path d="M203.462 299.241C203.462 302.29 203.153 305.519 203.585 308.541C204.32 313.688 207.517 318.128 210.083 322.491C214.153 329.41 219.208 335.737 223.54 342.476C225.983 346.277 229.451 349.393 232.163 353.008C233.076 354.226 234.155 355.944 235.334 356.888C237.605 358.705 239.204 361.897 241.278 363.971C245.974 368.667 250.732 373.125 255.566 377.705C258.351 380.343 262.476 381.663 265.544 384.049C268.086 386.026 270.878 387.405 273.304 389.561C274.235 390.389 277.028 392.785 278.293 392.918C282.398 393.35 287.191 396.753 290.765 398.738C292.514 399.71 295.601 400.636 297.016 401.91C297.787 402.604 302.71 406.175 301.297 405.39C299.059 404.147 296.387 403.517 294.245 401.91C288.41 397.534 280.424 395.77 273.858 392.487C267.281 389.198 260.651 385.961 254.458 381.832" stroke="#38761D" stroke-width="20" stroke-linecap="round"/>
<path d="M299.736 366.831C300.04 368.048 304.779 369.26 305.895 369.911C310.235 372.443 314.877 373.75 319.464 375.685C325.76 378.341 332.199 380.642 338.518 383.287C344.876 385.949 351.594 388.833 357.765 391.756C361.849 393.691 366.733 394.074 370.757 396.087C374.858 398.137 379.737 401.306 384.182 402.294C389.964 403.579 395.522 407.123 401.504 408.453C407.147 409.707 389.962 409.271 384.182 409.271C371.858 409.271 359.579 402.62 349.97 395.413" stroke="#38761D" stroke-width="20" stroke-linecap="round"/>
<line x1="331.634" y1="58.9655" x2="333.427" y2="36.0137" stroke="white" stroke-width="20"/>
<path d="M454.521 413.913C621 295.768 531.479 46.2683 340.5 46.2683" stroke="white" stroke-width="25"/>
<path d="M245 118.768C119 308.268 323.109 388.906 479 416.768" stroke="#38761D" stroke-width="15"/>
<circle cx="343" cy="246.768" r="220" stroke="white" stroke-width="20"/>
<path d="M523 247.268C523 346.981 442.387 427.768 343 427.768C243.614 427.768 163 346.981 163 247.268C163 147.556 243.614 66.7684 343 66.7684C442.387 66.7684 523 147.556 523 247.268Z" stroke="white" stroke-width="20"/>
<path d="M208.5 160.768C232.859 119.117 280.943 78.8001 314.443 57.8001" stroke="#38761D" stroke-width="20"/>
<line x1="312.944" y1="44.829" x2="304.944" y2="119.829" stroke="#38761D" stroke-width="20"/>
<path d="M163 260.769C160.5 151.768 233.5 91.7684 319.5 29.2683" stroke="white" stroke-width="19"/>
<path d="M522.71 359V140.818H555.629V330.662H654.493V359H522.71ZM689.101 140.818H726.494L783.49 240.001H785.834L842.829 140.818H880.223L801.068 273.347V359H768.256V273.347L689.101 140.818ZM1117.41 140.818V359H1087.15L976.247 198.986H974.223V359H941.304V140.818H971.773L1082.78 301.045H1084.81V140.818H1117.41ZM1218.33 140.818L1270.53 226.152H1272.24L1324.44 140.818H1362.58L1294.61 249.909L1363 359H1324.65L1272.24 274.838H1270.53L1218.12 359H1179.76L1249.33 249.909L1180.19 140.818H1218.33Z" fill="black"/>
</svg>
